<?xml version="1.0" encoding="UTF-8"?>
<svg id="_圖層_1" data-name="圖層 1" xmlns="http://www.w3.org/2000/svg" viewBox="0 0 238.31 23.25">
  <defs>
    <style>
      .cls-1 {
        fill: #fff;
        stroke-width: 0px;
      }
    </style>
  </defs>
  <path class="cls-1" d="M25.61,11.4c.99.29,1.84.87,2.53,1.73.69.86,1.03,1.97,1.03,3.32,0,.95-.15,1.83-.44,2.63-.29.8-.79,1.5-1.49,2.09-.7.59-1.64,1.05-2.83,1.39s-2.67.51-4.46.51H0v-13.8h20.08c.52,0,.98-.11,1.37-.32.4-.21.59-.62.59-1.2s-.2-.95-.61-1.15c-.41-.2-.86-.31-1.36-.31H0L4.75.37h15.03c1.36,0,2.58.13,3.68.39,1.1.26,2.04.66,2.82,1.19.78.53,1.38,1.19,1.8,1.97.42.78.63,1.69.63,2.73,0,.68-.09,1.28-.27,1.8-.18.52-.41.98-.69,1.37-.28.4-.61.72-.98.98-.37.26-.75.46-1.14.59ZM7.06,14.11v3.12h12.92c.77,0,1.32-.14,1.66-.41.34-.27.51-.67.51-1.19s-.17-.88-.51-1.14c-.34-.26-.89-.39-1.66-.39H7.06Z"/>
  <path class="cls-1" d="M38.12,23.06h-7.02V.37h7.02v22.69Z"/>
  <path class="cls-1" d="M64.65,23.06h-21.5c-.88,0-1.64-.24-2.29-.73-.64-.49-.97-1.19-.97-2.12,0-.52.14-1.02.41-1.51.27-.49.64-.92,1.12-1.31l8.28-6.51c.95-.75,1.76-1.39,2.44-1.92.68-.53,1.27-.98,1.76-1.36.5-.37.91-.67,1.24-.9.33-.23.59-.42.8-.58-.32.02-.68.05-1.1.07-.42.02-.94.04-1.56.05-.62.01-1.35.02-2.19.02h-12.04L43.52.37h20.93c.88,0,1.64.24,2.29.73.64.49.97,1.19.97,2.12,0,.52-.14,1.02-.41,1.51-.27.49-.64.91-1.12,1.27l-8.38,6.65c-.93.75-1.73,1.38-2.41,1.9-.68.52-1.26.97-1.75,1.34-.49.37-.89.67-1.2.9-.32.23-.59.42-.81.58.27-.02.73-.04,1.37-.05.64-.01,1.39-.02,2.22-.03.84-.01,1.73-.02,2.68-.03.95-.01,1.87-.02,2.75-.02h8.24l-4.24,5.83Z"/>
  <path class="cls-1" d="M92.36,14.62c-.5-.88-.93-1.66-1.29-2.32-.36-.67-.69-1.27-.98-1.8-.29-.53-.55-1.01-.76-1.44-.22-.43-.42-.85-.63-1.25-.18.41-.38.83-.59,1.25-.22.43-.46.91-.75,1.44-.28.53-.61,1.12-.97,1.78-.36.66-.79,1.42-1.29,2.31l-3.63,6.44c-.41.72-.92,1.31-1.54,1.75-.62.44-1.4.66-2.32.66s-1.68-.26-2.39-.76c-.71-.51-1.23-1.29-1.54-2.36L67.9.37h7.02l2.14,7.9c.36,1.29.66,2.42.9,3.39.24.97.45,1.92.63,2.85.36-.79.79-1.67,1.27-2.63.49-.96,1.12-2.18,1.92-3.65l3.05-5.7c.29-.57.59-1.01.88-1.34.29-.33.6-.58.93-.76.33-.18.67-.3,1.03-.36.36-.06.75-.08,1.15-.08.43,0,.82.03,1.19.08.36.06.71.17,1.03.36.33.18.64.44.95.76.31.33.6.78.9,1.34l3.02,5.73c.43.79.8,1.49,1.12,2.09.32.6.6,1.14.85,1.63.25.49.47.93.66,1.34.19.41.38.8.56,1.19.18-.9.4-1.85.66-2.85.26-.99.56-2.13.9-3.39l2.14-7.9h6.85l-5.87,19.94c-.32,1.06-.83,1.85-1.54,2.36-.71.51-1.51.76-2.39.76s-1.67-.22-2.29-.64c-.62-.43-1.15-1.02-1.58-1.76l-3.63-6.41Z"/>
  <path class="cls-1" d="M117.76,23.06h-7.02V.37h7.02v22.69Z"/>
  <path class="cls-1" d="M143.44,23.44c-.45,0-.9-.07-1.34-.22-.44-.15-.93-.48-1.47-1l-13.91-12.48v13.33h-6.38V4.24c0-.75.11-1.39.32-1.93.21-.54.5-.98.85-1.32.35-.34.76-.59,1.22-.75.46-.16.94-.24,1.44-.24.43,0,.87.07,1.31.22.44.15.94.48,1.51,1l13.91,12.48V.37h6.41v18.79c0,.75-.11,1.39-.32,1.93-.22.54-.5.99-.85,1.34-.35.35-.76.61-1.24.76s-.96.24-1.46.24Z"/>
  <path class="cls-1" d="M172.74,23.44c-.45,0-.9-.07-1.34-.22-.44-.15-.93-.48-1.47-1l-13.91-12.48v13.33h-6.38V4.24c0-.75.11-1.39.32-1.93.21-.54.5-.98.85-1.32.35-.34.76-.59,1.22-.75.46-.16.94-.24,1.44-.24.43,0,.87.07,1.31.22.44.15.94.48,1.51,1l13.91,12.48V.37h6.41v18.79c0,.75-.11,1.39-.32,1.93-.22.54-.5.99-.85,1.34-.35.35-.76.61-1.24.76s-.96.24-1.46.24Z"/>
  <path class="cls-1" d="M205.41,17.23l-4.51,5.83h-21.84V.37h26.29l-4.55,5.9h-14.69v2.71h17.98l-4.03,5.16h-13.94v3.09h19.3Z"/>
  <path class="cls-1" d="M238.31,23.06h-9.39l-5.05-6h-10.79v6h-7.02v-11.6h19.74c1.08,0,2-.23,2.75-.68.75-.45,1.12-1.07,1.12-1.87,0-.88-.34-1.54-1.02-1.98-.68-.44-1.63-.66-2.85-.66h-19.74l4.58-5.9h14.58c1.29,0,2.62.12,4,.36,1.38.24,2.63.66,3.77,1.27,1.13.61,2.06,1.44,2.8,2.48.73,1.04,1.1,2.37,1.1,4,0,.88-.13,1.72-.41,2.51-.27.79-.66,1.5-1.17,2.14-.51.63-1.13,1.17-1.86,1.61-.73.44-1.57.75-2.49.93.39.29.81.67,1.29,1.12.47.45,1.11,1.07,1.9,1.87l4.17,4.41Z"/>
</svg>