<?xml version="1.0" encoding="UTF-8"?>
<svg id="_圖層_1" data-name="圖層 1" xmlns="http://www.w3.org/2000/svg" viewBox="0 0 365.37 82.44">
  <defs>
    <style>
      .cls-1 {
        fill: #fff;
        stroke-width: 0px;
      }
    </style>
  </defs>
  <g>
    <path class="cls-1" d="M59.21,67.61c.91,0,1.75.15,2.52.46.77.3,1.43.72,2,1.26.56.54,1,1.18,1.31,1.93.31.75.47,1.58.47,2.5,0,.97-.18,1.85-.54,2.64-.36.8-.85,1.48-1.49,2.05-.63.57-1.39,1.01-2.27,1.33-.88.31-1.84.47-2.9.47-1.39,0-2.65-.28-3.76-.83-1.11-.55-1.95-1.33-2.52-2.33l2.39-2.66c.52.63,1.12,1.13,1.81,1.5.69.38,1.39.56,2.11.56.84,0,1.51-.24,2.01-.72.5-.48.75-1.13.75-1.93s-.23-1.39-.7-1.85c-.47-.46-1.07-.7-1.82-.7-.48,0-.93.11-1.34.32-.41.21-.74.52-.99.91h-3.73s.04-.2.11-.55c.07-.35.16-.8.25-1.35.1-.55.21-1.18.35-1.86.13-.69.27-1.39.42-2.11.32-1.68.69-3.59,1.1-5.71h9.47v3.92h-6.36l-.54,3.25c.11-.12.32-.24.63-.33.31-.1.73-.15,1.25-.15Z"/>
    <path class="cls-1" d="M81.2,74.37c-1.45,1.34-3.12,2.01-5.02,2.01-1.25,0-2.43-.24-3.54-.71-1.11-.47-2.08-1.14-2.91-2-.83-.86-1.49-1.89-1.97-3.1-.48-1.21-.72-2.54-.72-3.98,0-1.31.24-2.54.72-3.7.48-1.16,1.15-2.17,2-3.03.85-.86,1.86-1.54,3.02-2.04,1.16-.5,2.41-.75,3.75-.75,1.77,0,3.32.37,4.64,1.11,1.32.74,2.32,1.76,2.98,3.04l-3.27,2.47c-.43-.86-1.05-1.52-1.87-2-.81-.47-1.69-.71-2.64-.71-.73,0-1.4.15-2,.44-.6.29-1.11.71-1.54,1.23-.43.53-.76,1.14-.99,1.84s-.35,1.45-.35,2.25.12,1.58.38,2.28c.25.7.6,1.3,1.05,1.81s.98.91,1.6,1.19c.62.29,1.3.43,2.05.43,1.72,0,3.26-.8,4.64-2.39v-.59h-3.7v-3.19h7.35v9.95h-3.65v-1.88Z"/>
    <path class="cls-1" d="M96.63,62.17l2.55,3.97.27.51.27-.51,2.52-3.97h4.4l-4.88,7.06,4.99,7.03h-4.4l-2.66-3.94-.24-.51-.24.51-2.66,3.94h-4.4l4.99-7.03-4.88-7.06h4.37Z"/>
    <path class="cls-1" d="M108.54,76.25v-19.05h8.58c.89,0,1.72.19,2.48.56.76.38,1.42.87,1.97,1.48.55.61.99,1.3,1.3,2.07.31.77.47,1.55.47,2.33,0,.59-.07,1.16-.21,1.7-.14.55-.35,1.06-.62,1.54-.27.48-.59.92-.98,1.3-.38.38-.82.71-1.3.98l4.18,7.08h-4.96l-3.65-6.14h-2.87v6.14h-4.4ZM112.94,66.27h4.02c.52,0,.97-.25,1.34-.74.38-.49.56-1.12.56-1.89s-.21-1.41-.64-1.88c-.43-.46-.89-.7-1.4-.7h-3.89v5.2Z"/>
    <path class="cls-1" d="M146.15,72.39v3.86h-13.39v-19.05h13.15v3.86h-8.75v3.7h7.51v3.57h-7.51v4.05h8.99Z"/>
    <path class="cls-1" d="M151.46,62.17l2.55,3.97.27.51.27-.51,2.52-3.97h4.4l-4.88,7.06,4.99,7.03h-4.4l-2.66-3.94-.24-.51-.24.51-2.66,3.94h-4.4l4.99-7.03-4.88-7.06h4.37Z"/>
    <path class="cls-1" d="M171.93,76.52c-1.07,0-2-.22-2.79-.67-.79-.45-1.4-1.07-1.82-1.88v7.99h-4.29v-19.8h3.73v2.28c.52-.8,1.17-1.43,1.95-1.88.78-.45,1.7-.67,2.78-.67.95,0,1.82.19,2.61.56.8.38,1.48.89,2.07,1.54.58.65,1.04,1.42,1.37,2.31.33.89.5,1.84.5,2.86s-.15,2.03-.46,2.92c-.3.89-.72,1.67-1.26,2.32-.54.65-1.18,1.17-1.93,1.54-.75.38-1.57.56-2.44.56ZM170.48,72.9c.46,0,.89-.1,1.27-.31.38-.21.72-.48,1.01-.82.29-.34.51-.74.66-1.19.15-.46.23-.93.23-1.44s-.09-1-.25-1.43c-.17-.44-.4-.82-.7-1.14-.29-.32-.65-.57-1.07-.75-.42-.18-.87-.27-1.35-.27-.59,0-1.16.17-1.7.52s-.96.82-1.25,1.41v2.9c.29.72.72,1.31,1.3,1.8.58.48,1.2.72,1.86.72Z"/>
    <path class="cls-1" d="M186.9,76.52c-1.2,0-2.27-.2-3.21-.59-.94-.39-1.73-.92-2.37-1.6-.64-.67-1.13-1.45-1.46-2.33-.33-.89-.5-1.81-.5-2.78s.17-1.89.5-2.78c.33-.89.82-1.66,1.46-2.33.64-.67,1.43-1.21,2.37-1.61.94-.4,2.01-.6,3.21-.6s2.26.2,3.19.6c.93.4,1.72.94,2.36,1.61.64.67,1.14,1.45,1.48,2.33.34.88.51,1.81.51,2.78s-.17,1.89-.5,2.78c-.33.88-.82,1.66-1.46,2.33-.64.67-1.43,1.2-2.37,1.6-.94.39-2.01.59-3.21.59ZM183.76,69.22c0,1.11.3,2,.89,2.67s1.34,1.01,2.25,1.01c.45,0,.86-.09,1.23-.27.38-.18.7-.43.98-.75.28-.32.5-.71.66-1.17s.24-.95.24-1.49c0-1.11-.29-2-.88-2.67-.59-.67-1.33-1.01-2.23-1.01-.45,0-.86.09-1.25.27s-.72.43-.99.75c-.28.32-.5.71-.66,1.17s-.24.95-.24,1.49Z"/>
    <path class="cls-1" d="M214.58,62.79c-.05-.07-.24-.21-.56-.4-.32-.2-.72-.4-1.21-.62-.48-.21-1.01-.4-1.58-.56-.57-.16-1.15-.24-1.72-.24-1.57,0-2.36.53-2.36,1.58,0,.32.08.59.25.8.17.21.42.41.75.58.33.17.75.33,1.25.47.5.14,1.08.3,1.74.48.91.25,1.73.52,2.47.82.73.3,1.36.66,1.87,1.1s.9.97,1.18,1.6.42,1.38.42,2.25c0,1.07-.2,1.98-.6,2.72s-.93,1.34-1.6,1.8c-.66.46-1.42.79-2.28.99s-1.74.31-2.66.31c-.7,0-1.41-.05-2.15-.16s-1.45-.26-2.15-.47c-.7-.21-1.37-.45-2.03-.74-.65-.29-1.26-.62-1.81-.99l1.93-3.84c.07.09.3.26.7.51.39.25.88.5,1.46.75.58.25,1.23.47,1.94.67.72.2,1.44.29,2.17.29,1.56,0,2.33-.47,2.33-1.42,0-.36-.12-.65-.35-.88s-.55-.44-.97-.63-.9-.36-1.46-.52c-.56-.16-1.18-.34-1.84-.54-.88-.27-1.64-.56-2.28-.87-.64-.31-1.18-.67-1.6-1.09-.42-.41-.73-.89-.94-1.42-.21-.54-.31-1.16-.31-1.88,0-1,.19-1.89.56-2.66.38-.77.89-1.42,1.53-1.94.64-.53,1.39-.93,2.24-1.19s1.75-.4,2.7-.4c.66,0,1.31.06,1.96.19.64.13,1.26.29,1.85.48.59.2,1.14.42,1.65.67.51.25.98.5,1.41.75l-1.93,3.65Z"/>
    <path class="cls-1" d="M226.01,76.52c-1.2,0-2.27-.2-3.21-.59-.94-.39-1.73-.92-2.37-1.6-.64-.67-1.13-1.45-1.46-2.33-.33-.89-.5-1.81-.5-2.78s.17-1.89.5-2.78c.33-.89.82-1.66,1.46-2.33.64-.67,1.43-1.21,2.37-1.61.94-.4,2.01-.6,3.21-.6s2.26.2,3.19.6c.93.4,1.72.94,2.36,1.61.64.67,1.14,1.45,1.48,2.33.34.88.51,1.81.51,2.78s-.17,1.89-.5,2.78c-.33.88-.82,1.66-1.46,2.33-.64.67-1.43,1.2-2.37,1.6-.94.39-2.01.59-3.21.59ZM222.87,69.22c0,1.11.3,2,.89,2.67s1.34,1.01,2.25,1.01c.45,0,.86-.09,1.23-.27.38-.18.7-.43.98-.75.28-.32.5-.71.66-1.17s.24-.95.24-1.49c0-1.11-.29-2-.88-2.67-.59-.67-1.33-1.01-2.23-1.01-.45,0-.86.09-1.25.27s-.72.43-.99.75c-.28.32-.5.71-.66,1.17s-.24.95-.24,1.49Z"/>
    <path class="cls-1" d="M235.61,56.67h4.29v14.57c0,1.07.46,1.61,1.37,1.61.21,0,.45-.03.71-.09.26-.06.5-.16.71-.28l.56,3.22c-.54.25-1.15.45-1.85.59-.7.14-1.35.21-1.96.21-1.23,0-2.18-.32-2.84-.97-.66-.64-.99-1.57-.99-2.79v-16.07Z"/>
    <path class="cls-1" d="M248.92,76.52c-1.45,0-2.54-.45-3.29-1.36-.74-.9-1.11-2.23-1.11-3.98v-9.01h4.29v8.08c0,.86.17,1.52.51,1.97.34.46.82.68,1.45.68.57,0,1.13-.15,1.66-.46.54-.3,1.01-.83,1.42-1.58v-8.69h4.29v9.25c0,.43.07.73.2.9.13.17.37.27.71.31v3.62c-.41.09-.76.15-1.05.17-.29.03-.55.04-.78.04-1.54,0-2.42-.6-2.63-1.8l-.08-.86c-.64.93-1.44,1.61-2.4,2.05-.96.44-2.03.66-3.21.66Z"/>
    <path class="cls-1" d="M270.6,75.5c-.59.25-1.27.48-2.03.7-.76.21-1.53.32-2.29.32-.54,0-1.04-.07-1.52-.2-.47-.13-.89-.35-1.25-.64-.36-.29-.64-.68-.85-1.17-.21-.48-.31-1.06-.31-1.74v-7.35h-1.8v-3.25h1.8v-4.48h4.29v4.48h2.87v3.25h-2.87v5.88c0,.46.12.8.35,1.01.23.21.53.31.88.31.32,0,.65-.05.99-.16.34-.11.63-.22.88-.35l.83,3.41Z"/>
    <path class="cls-1" d="M272.26,60.56v-3.89h4.29v3.89h-4.29ZM272.26,76.25v-14.08h4.29v14.08h-4.29Z"/>
    <path class="cls-1" d="M286.21,76.52c-1.2,0-2.27-.2-3.21-.59-.94-.39-1.73-.92-2.37-1.6-.64-.67-1.13-1.45-1.46-2.33-.33-.89-.5-1.81-.5-2.78s.17-1.89.5-2.78c.33-.89.82-1.66,1.46-2.33.64-.67,1.43-1.21,2.37-1.61.94-.4,2.01-.6,3.21-.6s2.26.2,3.19.6c.93.4,1.72.94,2.36,1.61.64.67,1.14,1.45,1.48,2.33.34.88.51,1.81.51,2.78s-.17,1.89-.5,2.78c-.33.88-.82,1.66-1.46,2.33-.64.67-1.43,1.2-2.37,1.6-.94.39-2.01.59-3.21.59ZM283.07,69.22c0,1.11.3,2,.89,2.67s1.34,1.01,2.25,1.01c.45,0,.86-.09,1.23-.27.38-.18.7-.43.98-.75.28-.32.5-.71.66-1.17s.24-.95.24-1.49c0-1.11-.29-2-.88-2.67-.59-.67-1.33-1.01-2.23-1.01-.45,0-.86.09-1.25.27s-.72.43-.99.75c-.28.32-.5.71-.66,1.17s-.24.95-.24,1.49Z"/>
    <path class="cls-1" d="M309.44,76.25h-4.29v-7.91c0-.93-.17-1.6-.52-2.03-.35-.42-.81-.63-1.38-.63-.3,0-.61.06-.91.19s-.6.3-.88.52c-.29.22-.54.49-.76.79-.22.3-.4.63-.52.99v8.08h-4.29v-14.08h3.86v2.36c.52-.84,1.25-1.49,2.2-1.94s2.04-.68,3.27-.68c.91,0,1.64.17,2.2.5s.98.76,1.29,1.29c.3.53.5,1.1.6,1.73.1.63.15,1.23.15,1.82v9.01Z"/>
  </g>
  <g>
    <path class="cls-1" d="M37.06,16.45c1.42.42,2.62,1.24,3.6,2.46.98,1.22,1.47,2.8,1.47,4.73,0,1.35-.21,2.6-.63,3.74-.42,1.14-1.13,2.13-2.13,2.97-1,.84-2.34,1.5-4.03,1.98-1.69.48-3.81.72-6.35.72H.59V13.41h28.6c.74,0,1.39-.15,1.96-.46.56-.31.84-.88.84-1.71s-.29-1.35-.87-1.64c-.58-.29-1.22-.43-1.93-.43H.59L7.35.75h21.4c1.93,0,3.68.19,5.24.56,1.56.37,2.9.93,4.01,1.69s1.96,1.69,2.56,2.8c.6,1.11.89,2.41.89,3.89,0,.97-.13,1.82-.39,2.56-.26.74-.59,1.39-.99,1.96-.4.56-.87,1.03-1.4,1.4-.53.37-1.07.65-1.62.85ZM10.64,20.32v4.44h18.41c1.09,0,1.88-.19,2.37-.58.48-.39.72-.95.72-1.69s-.24-1.25-.72-1.62c-.48-.37-1.27-.56-2.37-.56H10.64Z"/>
    <path class="cls-1" d="M57.79,33.07h-10V.75h10v32.32Z"/>
    <path class="cls-1" d="M98.46,33.07h-30.63c-1.26,0-2.34-.35-3.26-1.04-.92-.69-1.38-1.7-1.38-3.02,0-.74.19-1.46.58-2.15.39-.69.92-1.31,1.59-1.86l11.79-9.28c1.35-1.06,2.51-1.97,3.48-2.73.97-.76,1.8-1.4,2.51-1.93.71-.53,1.3-.96,1.76-1.28.47-.32.84-.6,1.13-.82-.45.03-.97.07-1.57.1-.6.03-1.34.06-2.22.07-.89.02-1.92.02-3.12.02h-17.15l6.38-8.41h29.81c1.26,0,2.34.35,3.26,1.04.92.69,1.38,1.7,1.38,3.02,0,.74-.19,1.46-.58,2.15-.39.69-.92,1.3-1.59,1.81l-11.93,9.47c-1.32,1.06-2.46,1.96-3.43,2.71-.97.74-1.8,1.38-2.49,1.91-.69.53-1.26.96-1.71,1.28-.45.32-.84.6-1.16.82.39-.03,1.04-.06,1.96-.07.92-.02,1.97-.03,3.16-.05s2.46-.03,3.82-.05c1.35-.02,2.66-.02,3.91-.02h11.74l-6.04,8.31Z"/>
    <path class="cls-1" d="M140.83,21.04c-.71-1.26-1.32-2.36-1.84-3.31-.52-.95-.98-1.8-1.4-2.56-.42-.76-.78-1.44-1.09-2.05-.31-.61-.6-1.21-.89-1.79-.26.58-.54,1.18-.84,1.79-.31.61-.66,1.3-1.06,2.05s-.86,1.6-1.38,2.54c-.52.93-1.13,2.03-1.84,3.29l-5.17,9.18c-.58,1.03-1.31,1.86-2.2,2.49-.89.63-1.99.94-3.31.94s-2.39-.36-3.41-1.09-1.75-1.84-2.2-3.36L106,.75h10l3.04,11.26c.51,1.84.94,3.45,1.28,4.83.34,1.38.64,2.74.89,4.06.51-1.13,1.12-2.38,1.81-3.74.69-1.37,1.6-3.1,2.73-5.19l4.35-8.12c.42-.8.84-1.44,1.26-1.91.42-.47.86-.83,1.33-1.09.47-.26.96-.43,1.47-.51.52-.08,1.06-.12,1.64-.12.61,0,1.18.04,1.69.12.51.08,1.01.25,1.47.51.47.26.92.62,1.35,1.09.43.47.86,1.1,1.28,1.91l4.3,8.16c.61,1.13,1.14,2.12,1.59,2.97.45.85.85,1.63,1.21,2.32s.67,1.33.94,1.91c.27.58.54,1.14.8,1.69.26-1.29.57-2.64.94-4.06.37-1.42.8-3.03,1.28-4.83l3.04-11.26h9.76l-8.36,28.41c-.45,1.51-1.18,2.63-2.2,3.36s-2.15,1.09-3.41,1.09-2.38-.31-3.26-.92-1.63-1.45-2.25-2.51l-5.17-9.13Z"/>
    <path class="cls-1" d="M179.91,33.07h-10V.75h10v32.32Z"/>
    <path class="cls-1" d="M219.38,33.6c-.64,0-1.28-.1-1.91-.31-.63-.21-1.33-.68-2.1-1.43l-19.81-17.78v18.99h-9.08V6.26c0-1.06.15-1.98.46-2.75.31-.77.71-1.4,1.21-1.88.5-.48,1.08-.84,1.74-1.06.66-.23,1.34-.34,2.05-.34.61,0,1.23.11,1.86.31.63.21,1.34.68,2.15,1.42l19.81,17.78V.75h9.13v26.76c0,1.06-.15,1.98-.46,2.75-.31.77-.71,1.41-1.21,1.91s-1.09.86-1.76,1.09c-.68.22-1.37.34-2.08.34Z"/>
    <path class="cls-1" d="M264.02,33.6c-.64,0-1.28-.1-1.91-.31-.63-.21-1.33-.68-2.1-1.43l-19.81-17.78v18.99h-9.08V6.26c0-1.06.15-1.98.46-2.75.31-.77.71-1.4,1.21-1.88.5-.48,1.08-.84,1.74-1.06.66-.23,1.34-.34,2.05-.34.61,0,1.23.11,1.86.31.63.21,1.34.68,2.15,1.42l19.81,17.78V.75h9.13v26.76c0,1.06-.15,1.98-.46,2.75-.31.77-.71,1.41-1.21,1.91s-1.09.86-1.76,1.09c-.68.22-1.37.34-2.08.34Z"/>
    <path class="cls-1" d="M313.44,24.76l-6.42,8.31h-31.11V.75h37.44l-6.47,8.41h-20.92v3.87h25.6l-5.75,7.34h-19.85v4.4h27.49Z"/>
    <path class="cls-1" d="M363.19,33.07h-13.38l-7.2-8.55h-15.36v8.55h-10v-16.52h28.12c1.55,0,2.85-.32,3.91-.97,1.06-.64,1.59-1.53,1.59-2.66,0-1.26-.48-2.2-1.45-2.83-.97-.63-2.32-.94-4.06-.94h-28.12l6.52-8.41h20.77c1.84,0,3.74.17,5.7.51,1.96.34,3.75.94,5.36,1.81,1.61.87,2.94,2.05,3.99,3.53,1.05,1.48,1.57,3.38,1.57,5.7,0,1.26-.19,2.45-.58,3.57-.39,1.13-.94,2.14-1.67,3.04s-1.61,1.67-2.66,2.29c-1.05.63-2.23,1.07-3.55,1.33.55.42,1.16.95,1.84,1.59.68.64,1.58,1.53,2.71,2.66l5.94,6.28Z"/>
  </g>
</svg>